<mxfile host="65bd71144e">
    <diagram id="NN8zJmnr08I_mAOFmAFu" name="Page-1">
        <mxGraphModel dx="753" dy="839" grid="1" gridSize="10" guides="1" tooltips="1" connect="1" arrows="1" fold="1" page="1" pageScale="1" pageWidth="850" pageHeight="1100" math="0" shadow="0">
            <root>
                <mxCell id="0"/>
                <mxCell id="1" parent="0"/>
                <mxCell id="5" style="edgeStyle=none;html=1;entryX=0;entryY=0.5;entryDx=0;entryDy=0;" edge="1" parent="1" source="2" target="3">
                    <mxGeometry relative="1" as="geometry"/>
                </mxCell>
                <mxCell id="2" value="unit-test&lt;br&gt;test_unit.py" style="rounded=0;whiteSpace=wrap;html=1;" vertex="1" parent="1">
                    <mxGeometry x="110" y="330" width="120" height="60" as="geometry"/>
                </mxCell>
                <mxCell id="14" style="edgeStyle=none;html=1;entryX=0;entryY=0.5;entryDx=0;entryDy=0;" edge="1" parent="1" source="3" target="13">
                    <mxGeometry relative="1" as="geometry"/>
                </mxCell>
                <mxCell id="3" value="integration-test" style="rounded=0;whiteSpace=wrap;html=1;" vertex="1" parent="1">
                    <mxGeometry x="355" y="330" width="120" height="60" as="geometry"/>
                </mxCell>
                <mxCell id="6" value="à chaque mise à jour du repo" style="text;html=1;strokeColor=none;fillColor=none;align=center;verticalAlign=middle;whiteSpace=wrap;rounded=0;" vertex="1" parent="1">
                    <mxGeometry x="140" y="430" width="60" height="30" as="geometry"/>
                </mxCell>
                <mxCell id="7" value="ajouter un test sur l'affichage du résumé des activités" style="text;html=1;strokeColor=none;fillColor=none;align=center;verticalAlign=middle;whiteSpace=wrap;rounded=0;" vertex="1" parent="1">
                    <mxGeometry x="140" y="550" width="60" height="30" as="geometry"/>
                </mxCell>
                <mxCell id="8" value="uniquement dans le cadre d'une merge request/pull request" style="text;html=1;strokeColor=none;fillColor=none;align=center;verticalAlign=middle;whiteSpace=wrap;rounded=0;" vertex="1" parent="1">
                    <mxGeometry x="385" y="440" width="60" height="30" as="geometry"/>
                </mxCell>
                <mxCell id="9" value="utiliser service ou testcontainer" style="text;html=1;strokeColor=none;fillColor=none;align=center;verticalAlign=middle;whiteSpace=wrap;rounded=0;" vertex="1" parent="1">
                    <mxGeometry x="385" y="550" width="60" height="30" as="geometry"/>
                </mxCell>
                <mxCell id="13" value="ui-test" style="rounded=0;whiteSpace=wrap;html=1;" vertex="1" parent="1">
                    <mxGeometry x="600" y="330" width="120" height="60" as="geometry"/>
                </mxCell>
                <mxCell id="15" value="uniquement dans la branche main" style="text;html=1;strokeColor=none;fillColor=none;align=center;verticalAlign=middle;whiteSpace=wrap;rounded=0;" vertex="1" parent="1">
                    <mxGeometry x="630" y="440" width="60" height="30" as="geometry"/>
                </mxCell>
                <mxCell id="16" value="utiliser selenium" style="text;html=1;strokeColor=none;fillColor=none;align=center;verticalAlign=middle;whiteSpace=wrap;rounded=0;" vertex="1" parent="1">
                    <mxGeometry x="630" y="550" width="60" height="30" as="geometry"/>
                </mxCell>
                <mxCell id="17" value="" style="shape=image;verticalLabelPosition=bottom;labelBackgroundColor=default;verticalAlign=top;aspect=fixed;imageAspect=0;image=https://testcontainers.com/images/testcontainers-logo.svg;" vertex="1" parent="1">
                    <mxGeometry x="319.5" y="600" width="191" height="48" as="geometry"/>
                </mxCell>
                <mxCell id="18" value="" style="shape=image;verticalLabelPosition=bottom;labelBackgroundColor=default;verticalAlign=top;aspect=fixed;imageAspect=0;image=data:image/png,iVBORw0KGgoAAAANSUhEUgAAAEYAAABKCAYAAAAG7CL/AAAABHNCSVQICAgIfAhkiAAACvdJREFUeF7tXGlQldcZfhGQfb+AyiKC7AoiKlJHjaJxGY2YxCaabrGxMekk6SQzbTqdsU5naqfTH01+NKmtVk3M0jSLaGIcJzZqNLihouAGCiqKgOy7gPZ9PnMv936cc+7CaC/kPjPfON97lu+ch7O829XttZfev9fc1EEu9DMQEuJLI1ykDFwSjY0dNGKg2CUBAy5iJOvARYyLGAkDErGHRD4sxL6+IylvYTpNzIyhMVHB1Nlxhy6cu0l7Pj9LN6oalXMctsTgyn31t4soJNTPRIAPE5U1JY7SJkTRxr99TZfO35KSM2zPmGfXzrYgxZwBL29PWv2LWeTr5/X9IgbbJj4hXDppFPgHeNOceSnSOkN+K/n4eNKTK6fR+KRICjP4SycqKoiNCxOJNdmQJmaklwe9/vuldhNiZMPPz3t4EpP/xGQTKRWX67Qb595dolBeOdNnJEgnbSy4cb1BWmdIr5iJWbHaxI4fraBt//zGYpIpaaMpmG8mFQoPl0uLh+ythG2EKxk4f7ZqwAS3bbIkSl/haOEVqrxyWy82vTslMRGRQZSQGEFBQT7SgXt6upvKent5/+hQdrGG3vzLXoKlbI6urh767KMienfzIX0Ti3en2krJvPxX/mg6GSICTIOsudVMOz89TcUnr0on4uYmLiq7eIs2rCug5NQxFDEqkNrauujEkSt0506fuIGZ1GmIycoeSz9/YfaAAUeOCqI1L86md7ccpqOHLw8oh+DuPaFYE3Z29tBpBamylk6xlQICvWnVT3NlY9TkWEnerLEacU9BhrIjGwudYsVkTx1HsGNU8OAzZdFjmVRSfF2r5u3dX1+yk1TdWS1zCmJGjQ6yOlBUyHs0TXv0eBCLxym2Uk+v9cNQT8aDfneKFXP9ar1N89z7ZQmdL7mh1fX39zYd1sN2Kx1jZWtJfhaFhvX7TvRMtbV20Z5dxaar1ppWq29v77tTbCUM+t/bj9Cd7l7h+CF/6819Uv3jQZwxTrGVwEbp2Rv0x/U7afmKbJo0eayJIKjt77CWWlvTIiQNQtVWgjMqKXmUpuD13OnVDM3qm83SvowFTkMMBlRf10ab3jpAQcG+ZAj3p9u1rdTc3Gl1ErIK8xak06KlGQSPnTlOsNG5VWd06vtwKmKMg0N01FqEtK+v3z4yt5uMfcyZl0b5vPpEmJIzjtzd3Wjz3w+KijWZ05wx0hFKClpbuggPkJweZVELRC3Jz5S0vC+GU3xCRrS0jlOuGOlodQVnTl+nGbMSadr0cWQw+NHF89Wao8oQGThg+4j6zGR/TsmZKlHR0HZtFnxcRKnpY7RrPn58hPbYgzHRwdLqQ3YrYUYdHEBb95tP6JMPj1P5pRrpJGUFLS3yg31IbyXjhL/+6jzhMQL+nPUblsv4MMnL2Zklw5BeMbJJ4Zo/IvHdGNvg1tu395ysC8fPGDib4xMiaOw4g7bHg4J9tMhee1s3tbZ2UktTJ5WX1XIYtFr792FjOzu2goK8KZXDsXrA3bllo/yqRn235368yS6NevGyTL4JkpT+WP1AcK1iqR/87wWCz/VhIu/RdMrhUEow/+HK+By6cK6aoOAhwK+CzcSEhvnTml8+QjGxoar+lGUgZeenpzSCnB02nTHhEYH06usLB0UKiIBr8oerptHal+cSUjScGTYR8+Irc60Gr+yZJDTOZRxFdGZYva5nzkmmcNYkVWhsaCc8fn4jOTwaQCLbxbw9zpwvdharuvy/l1klJm9+qnSQuwuK6eD+iwQnkjmw9RJTIjmTKVrLZtJjK0cJWwZhNev7exDvSmLgpDbwJEU4fOAS7WaPmgh1tS2E59uDZRTIoZGly7Mod2aiVvWrPSV0kW8GR4FoAkKzOK+aWCVoqG9ztCtlOyUxAYHyEOm5Utsm18Lb5r1thVR0vJIQJtnx8UnlgESFWIHTZ8TTlJx4YcrHhdKbVHSikgq/kQfpRf2qZEpiPDzlZ3N0bIgybKr/KPQHPPYA6RzwBcN6ViGFDUk8S5ZNoi8/P0OH9l9SVbepTEkMtFcZFi3JoDZeDQcekE4CMp7i6KPe+yYbD+Tw/D3NbeLiDLR967eqqlbL3CdnPrZeVgtO6Lkc4HJ3F6+c9IlRNPORZIqKCaVAzkyov93GftXBx4hmz03hkO0PyMOjP6NBNkaRPJqVUEN4ABWfuiYqtkmmJAbuwzFRIVqOrAxenKcSFR2iecPmL5xAObnxlJgcSZ48qQa+wnt77CMKbVdzxqUMJ/ksOXX8KiHNo7y8ViPPmCdj3iYqJoRTQNqp6po8a0r2DciVWwkVdu86Q9nT4lR9WJSF8V8KT+Z3nn7cQMXsaSs6VqEZmNawYlWOsAoMURiGsJzN8cWO0wRd66lnBrZ7fMUUOskkdjtgnylXDAbQzjklHe3dlMbbxhFgSWPLzeIt5+Y2gi6XyX0gU9lJja2pR/XNJnrjz3sG6EvGetcq66mOwyuTOJXEHFA0e7r72LqXf1P/LeO7+PDQ1d6/7wJtfvsAdUsCYrLOzeU4RJcun0QvvzafkLkgQs6M8SIxFfAV32NlSyIPr0KQOjY1V32jCT/IQpuIQeNTRVdpw/pdhD0+GCSljqbnBAlCUNjg49Gjob5d6rDW1y08VKYXERKPkOxsL6yeMeYd1te10r84FvNZyAnKYA97xqQYQnqYvcBBPWde6gB3pKgfrK7FS9WhEGO7SEk6SVx8uCmvRvQNkcwuYowdwAMG/QUP/tKZ2bE0dqyB4HVHhrYtWMB6kLmfVvZXhUkB59hgoEoWkPXrEDHmncH5hNw4Y34c9BlcuUkpo7WYjwz+/l5aPVy7wEjJuSNrb4/ckcwIm88YWwcCq7noWCV98E4h/eF3BdSkSyc17yeaFUMjWnUWuq3fs6WeTEFVtR30ilF1XlvTrAXPf/XrBcJqMA6NUMV44N4YDHBj2QubiMGWWPmTXM0yhtvAHiAQhqtW5Lzqu9uvFSPTAQ5qUZJiCWd+Q1d5mLC6lZCljZ+9APlPTqa1L80RquCyQePmEpGC+s2NlkbqJU5YFgGe/ocNq8Ssfn6mxcQmsEduHUf5FnNqKdwCKiBs8bM1M6VV9EScZdNBBJgk2VMttVpRPciQMwzdZbBQbqUnnp5CsFT1wAoAMXhg/1RW1NFVXurXKhs0p3kst4EJoboNkCGl3x6IHi5YPFHoY372+dkUE1dKO/5TpB+O9o5v5bLmPJeThZBCD2W0ga19R6GMK/317Wek28DRDxrbbf3HQTrBt5cesKteeCVPLza9w7UBd0JXx3eBOyZhPP8gAxq1OWB0wr5yFEoj8jJ3jhCneaq6ox8yb1fEFu9uSZSgjq3nevbjIndFBMSjxvHvHRNTRt1/OL8O1rweUOrgG7rCrglHoDxjcKP8iZekMbfWkQ/o2yAKuWXjAb3Y4h3K4hZeUYNFNycjOgrlVjLvFCtn2eNZwjPHlo8jlvTh9qN2+Ynj4g2amgBHmD2ANv3R+0ep+kaTPc0s6tpMjLEVLOAEtocSeDnDOMMvzVSout5IRw6V0/59/fkrqvqiMlz5mZNjeQsZCOqDHjBLKsrrtKwKaN236+Spr/q2sne7idF3BNcm0j/wM1/sf7cR97NuodSpflqn78eed6gJwWyTwfVaz24JfcDPnr5kddV/blkrMzmcV3jU/1OCDR3ZUQXX8GCuYls+pTx8belguNZxESP5y7qIcREjYUAidq0YFzESBiRit3OlVff6BL90l9T/XogDOA32fzmxgq1KR7SdAAAAAElFTkSuQmCC;" vertex="1" parent="1">
                    <mxGeometry x="625" y="587" width="70" height="74" as="geometry"/>
                </mxCell>
                <mxCell id="19" value="" style="shape=image;verticalLabelPosition=bottom;labelBackgroundColor=default;verticalAlign=top;aspect=fixed;imageAspect=0;image=data:image/png,iVBORw0KGgoAAAANSUhEUgAAALoAAAAsCAYAAADSMaKvAAAABHNCSVQICAgIfAhkiAAAEppJREFUeF7tXQd4VMUW/nc3RUgvVIFQHlUINYLShMB7gCShN2lSlCpSn/IUsPFUEOkgSBFUHk0UBB4g8qQrvQmoFJEmhARIgZTdfefcsGH33rm79242kZLzffuFPTNzZu7sf8+cOefMYCgSVsYKJzSjrDfqBZqQYrag7c/pSDQ7qeyhoimlvdEw2IQ7Zivan0zD9UwPCc4X89jOgNHZk0f4QgI5k5/JiBYhWf921ianZWFeQIOgrGEVMBnQJiz3+8zpmPPbP/gz4BTosaGEOjuKDnZa3SNP24z6MBgM2bLahhPQrU4XHY/0my/k0Z4BVeQaCFwxoY7FkX5GsMbNTYomk8WeCnkbERWQr9Vzc84fB9mqQGfzIYRAZk+saZvdMytyY3L4JapBL5Oc4mQvnLw8/3v+DLiaASWq7rWIk5ktNkFNg3NPpTchbW5vttj6bBxkgr/qSF094oNT7uvrg5GjX8HnyxZgwttjEV4o/MEZ3CM+EoPI68LWw6aqvjDa2cq2ebCSSdPsWBpuWzw/M7PJwxN1b/Mrl/7BxQysis8Dl49dx4UKhyMsLAwBAf64fj0eV69cxd27afKhafoeEhKMNWuXoVLlitn140lmXExnnPntnCYZ+ZXcnwGhem4dahKCnLthjds8xIjVNzyL9EDS2LUC1NV2DPWZ20AvW64MYmJboUnThqj3zNPCWb148RIOHjiCrVu2Yfl/VgvriJi9XuzuAHKuwxp9xMihGDxwhKiJ2zxeNeo3eEbRvnOHnsjIyFDwHyRG9RrVMP6tsYohvfvW+zh48IiCr5UhBHocAd0ZRZMp4WmgNyVvi0mwgtjGUcXPhAjfDPzunkJ19jgo6FcQo8cMw8DB/Z3W48ISJZ6UPrFxrfCvN8fg4ykzsWjBUpftwsJDhXUKFykk5OeEWbFSBTxbv65ChIlcxA84zhEcHCQce2iYeP4UD6nCUAC9agGgdAF1zcpyWPOyBvak+dJM5m0Rjbc97VanXPZs9KhmzepYtHQuihYtIurSKY9B+u8P3kJcm+cxeMAIXLp0WbX+nl0/ov9LvRXlO3fsVfCYwbJ79uqmKFv/7Sac/PmUgp/PcD4DCqDHaPAfsuZlDfx1gmfMF35p6jgxW2yP0JqCR9MvZyAT9/3szh/PeWm79rGYOuND+Pj4OK/oopTNnPWbVqNtbFecO3teWHvD+k34ZM4C9O3fC15eXhQasGL1yq8xe+Y8YX1+8UbRKiOnc+d+zwe6fFI0fHdQ3T4GK1pqjH7K/d0a+lKt8hy5LJ2ZLbaGARQpbaSyWVUVrlLQOqYlZn8yNccgt4lnYK7/72qnK8P4N99D+TKRaNm8Lf2tjiGDRj7wNrPK9D10bAegR5PrkMPuWiiKNHBB5xaOFjFSnaYazBabsBgPpASUKVsa02dOUh3fzZu3sGTxl+j5Qn/UrfMcioaXReRTddG8aQw+fP9j1XahoSGYM2+aajkX3LlzF4cOHUFycrLTevmFnp0BB6jG6gjMsAaO9kDwiF8Wfmm00rNk54R7a60trjdr7sfSBlREM6bNRZ0aDTFm1BvYvGkrfj9/Qap27c/rOHb0BKZMnoHa1Rtg756fRM3xzLNPo33HNsKyfOZfNwPZNnpxAk8dnaH2cRE+GBeRt4Nn335rMq8WX3PPp16rVnXwR0Tj3ngX8+YuFBU58HjTya66+Qtn4e//iFbUHzpsgGR/P47k7++PapFVsgN/FosVRw4flVYyLaSW1mSxKPeD7P0qFVFCEmum7NoD+w8hM1PsrMgGeqyGTaiWgeZFHc5odBfo/Qf0EQ5x1849mkBua5yWlo6X+g7B4eN7JZeYPVUi9x77g48cPpbNZu/Oxi1rFH0PGjAcX636RuJztHTAoH6KOvaMWXOmgD/2VLJYxb/U1g8MDECHjm3R8vnm5BqsB5PJ0T3Nvvsd23dj03+/w5rVa3H7dpLTZ3RVWCeqFl4dMRjNmjdxqHrr1m1J/oL5n+HXX884lGXZDPQaxYZpNx9cDSS3y5/0NVJOjLa9hP1YWNu0bRcjHN7okW8I+c6YHCWdM3O+sEqjxvWF/EeJaTQapRdz36EdmPjBBDRsVF8Bcn5eb29vNI1ujA8mvYODR3dh0BDX8Qq1eZo8ZSK+3bhKAXKuHxQUiN59umPHni2Yt2Cmg6NB0ugDy5lQviSQfseCu8kGWMz6QaQ2MM/yrfD1t8KHfP3v+JsQs1O8TKn12bDRs8Kib9dtxNkz7oXh589bhH37DijkXr8Wr+A9Sgx2yXJKQ+06NXU9FiubcRNeR2T1ahjQ/xVdbWfO/ggdOrXV1IYDeiEhQejWuY+02klA71CaPCihVkjbM7KpUm8ByfFGZGY8GIA3GK3wC7bAL8wKk3fWmGrQy+hjsCDdqn0latK0kXCSln2xUsjXwkxNvYPdFAx63GjyxxN1g9x+jtq0bY1tW3/QnEbR+LkGmkFu64dXmElT3sOrQ8dkAb1koN0QCDcFQ+gTbMad20YkXQcy07WDyZM/OAPcn8DtF2KB0YsBfv/FM5IZ2LiQCVuuaT+UUVNlE7rvJ6VG9uRzaJW17fvt5HZMkaoXKVIYPXp1VTTduGEzThw/6cA3m93bmCuEa2SwGdKpcztFbVsQbCGlRJynwFZ6egbl91TAkKEvo0Wr5or6IykgJs8XYhkienlg32z2rp17SbnslbxgHEGOjKyK52NaUAKeMk2gS9cOWLn8qyygF6Qjcwoi70aBICsKBFqRRKtw0vW8BbuvnwXBxVmD88jEK0s5f4MuoAdTBqGc2H2Y082RXKa733/4307whymyelUh0DnCunK5clPrbp/utBs4WLlhTkhIRI9u/STPhz3t33cQvXu+DLatu/fs4lBWqlQJaVWwb2M0in9rW8M3x76N+fMWK4Y9edI0LFu+GE9VrawoGzl6GCT0GpwFiQjwAYWsKFTGTKATv20KyTlhUHQ2qKgZYRE2kKsLC9HpT2fvgJw4OJRP+mbgU/JqTHx3Er78YoVktnGMYeqUWQqQ20udPm2OsBM5MFUUutT2vXc+FIKcy3gM7eK6QvR7coKbZKNbyS43uHiTvGkDWLisBYlXDLhLJk1uEL9IoSXM8C7g/K229Z2Yrm8UvCuXU0pKqpwl/M45MaVK0Y5dI6WmpqJ71/vLrcZmD0W1TRu/A3/00B8XLoJ94eypsSf5nKolsDKA53+yyGmX7F7kTNLhI4co6klAv5NmQEECsisykF0cWsKKFErmunXVs2B/wt+CkCfphXO2usgGeOKWvhVGNNFeXo4+X7U5qFEzEuwf10op92xtrfUf9XpsislBzs8cEupoTqpp9LVfr9d06GUF2eOqQL9I+bYVXKTm2v8QfuSh8S5gRuJFA8wZOQW8FYFFLLTp1PdTW+jOlx0J+oB+Iz4BfGrIngIFWl7fSPJry2eA0yuqVq0CVg5sLvJf3sBqITWN/pNGhwFnjyYm3iTXouMLJGn0lecs+FcRfYBlXzabMgkXgbQUfW1tD8ymSgiZKj4aTRX7iTrjhps6ITFRAfSwUOVOXcsP4qqOFfpeQlfyHtRyNgc5E5TBzMly5cuXQ5Gihd0erppGP/vbWc0yz1Bdjp7akwT0OWctGF2LAjE+2mxjmwA2M3jTmBxvwe1rju4/V6PyJVMl9EmLLlPFXuaMk/pdan9e/RMVK5Z3GBpreD7Sxuc3ndHhQ0eRcCNRWKVM2QgUK1bUoSwlWZvtLxT4EDALFHgCY14bjn50mIQjn54iNY2elq59Q8Yrt5yyNqPkvlt+2oIe1bTZq3Ih/uH0kpA7MPGCiZJrXL0sZKoUZv84JemoPZW8A9n3y2SyrL6sX2Me2H8YjRo3UEivXaeGy80VBx3UaDZlQ7brEOdQHB9/Q636Q8/n3J7lq5ZI+TxaKSkpCZcuXlacm9Xang+raCWLVZkAlt369WNm/KOkEYWDXQFV3B2bH4XKEdgvGVRNGZPJiuASFvj6sQz3+jFT1H/QXn2hf9uI9+z+iTYqyvHH0oFovV4EeykVZKsEl/GtAY8qTZ81WRXknD24d88+cBAunbTwBfK2/HL6VzoVdRpvjBvjEuhqpoufSlq1aI7l9jnXyQY6+TvQZHM6drb0QUiAeyA0kjQ2ZZKuW+jjaMr4FiSvCoE8K8IpGp5rHm9A+24zY99N13VFNfbvPyhiU1StJV4bMx6sdfQSnyyqWq2KotnRI8cVvEeB0YDyhUSpyZzNOf7Ndyk9+RvVeRTd2SOfE7VFvkyZ0ppTLSpXqSQXmxUwsnFvZhrReFMGbqfoNwvsJXOAKSyCQE0anLz0CAi3ZH2XwvjukZVA/sp2M7Zcd39sqeQzZ/eTnJ54wpcOOU+QszV9H/rqQGG9LZu/F/IfdqZq9ueIsVi88HNVkPNzazmbq6bRa0dpSx5jc0oUL1G4S26kGxD1bSaOXHIfUPxQbJ6ElyEtXsGMALLJ3bXHWVZamhU9vs/Emis5GxPLmkkniETEWXG9XnxBVKTK+3uLaPTt11NRfpU2vTnNn1HL+fAyabdVFQPzAKN48WJCKVpebHkUVChIhfl86xbw85dsXqfUo6cyP4gbKIDOzGRyaLT6IRMzDpilqKk7lJFhhbEa5crUo/RfPpcg2CBokXueNHitb9KxjZLLPEG//PIb1q3dIBTF+dLsSSioIXrGaaBLPhfnon80abpQvh6mWqJWseKO3h09MnOzrq+vKGHqfo8cbHu6bh2XQ1AzXVhLjxv/mtP2fytfFl1f6CisIwS6reb75InptNmMlFQdYKe1J43yVbzrEdCDyFSh1AIfuoUtozTluevwLfMLtpQ2yPW3ZIJNKk/SqOFjwTduiWjEqKHYf3inBHj53Yh8+JkTk9auXyEl9ouIr5db+tkyUZEuXmKCeCPC2XjyE026BOew8rVrYo3TrXsnVckMUr5xIafEKy4fUxR5YPiqv8+Wzhce/ODEMpfr4G5y5dVaR2ZDIy9UKebcxmY7OpMunvL9m+NGlB/QuwgBnQ5NZJ6ywsuFC5KPF764nY5fxTvvz92J45yIl/oMwYbN4ixABjQDnj966MaNBHTr8qKeJqp1r9A9j3x4Qx7JLRVRErt+3IrTp36V2vLxNL4vRgudv+iY3qulDccXqla+fz3f/7btQOcu7RVNWTFwiH/61DmSt4WJ02Zbx7aUbkGTKw2FAI0Mvh2tX//eUnqvrZ+op2uD89XViMekSVWyKdN8WyY+OaRuymSSqWKpRJpcArmYjHT8zauGAekEeDViU6UmmSq5BXJbv3yPX/s23TTlT6iN1Z7PoOQD07ZbA7S0cVVn1Urxi8gA4ow8/sTRAYa8pHXfbMAff4hXQ75w6cLlU7gaf1b6nDi9Xzo+xyDnAyrsanRFapvR18aMy27KkddXyAnA/fHHGcjZTOXbHDQB3dbD2yezTJnUO45ATSczw4teehNdBOqSKCblU4XATrnm9GpkV+fVYMnRLFMlyYXGd9mHxgqcwN82poukOXNC7J9v0rgVjh/7OSdiFG1n0XlUXn2cUWTkU+DrqPOK2E8+bMgo3YexJ4x7DxfuXR3izljZ/Fi4YImupvz7Drl3gasGZDrKZlOm9rp0nKGTPWxHp9PhDJ96pMXvHXHTOhKfEmTKVKKkMLLn2VTpujUDrx9XRrS0ynO3Hl8mFFWrISaMm+gyDUDex+XLV+hHH01X0XXR3VYuS/SdzYaunXo7vVaa7dVqdMImL4lz0Lt07AU2r1wRa/KRw1+XLoTKKY395wRNZhqfEZ384TR0bNedPHZZZpRLG100uNu0OWz0XSbG1zWgfx330gZYrinQgJ8psavzyjQk/EXH9XgcfJp/7uxPpQ9fQMRpAvyXNzjyjR8Hlb7ful2yjdfToWrbRIrmyZ6XlJwkDHiobe5sbQ8eOIz69aIR3ew58IavRcvmDhsuvlJDfufJ6VO/YHe4znRQlQe4eVO8KWZt+UxUEzrR/xLatY+jhK4Ih3Gx/fzZoi8wjexjWx7RiRMnKbbiiBdOwLKnW7duCefJdm6Ar/Vb89U6yXThw+4BAVmHadgdy5mL22gPwXfzyE1I4X8EoPLMQnZd8nYt7e9FB5fVbXNRQyvZ9LPXmDFxt7q9LmqX17xwAgxvADm/nMP6fGQsn5QzwHe5MNgDCXh/0mkfjiWouUiVrXOfk2Og8xD9KXltRVcvVK+lDezJZBL3/DQDP7pe+XJ/BvJ7eCxmwCNAt83UsCgjRnUwwuirDvj9++k/yf2Srn62qNd5LGY+/yHzdAY8CnQeeQ3yo68YoDRl2FSZvMKMqfsebFMlT2c/v7M8mwGPA51HzqbMhj5eKFc5S2unkqem16dm7HYjhzzPZiK/o0d6Bv4P07wYytEgSgEAAAAASUVORK5CYII=;" vertex="1" parent="1">
                    <mxGeometry x="239" y="148.39" width="186" height="44" as="geometry"/>
                </mxCell>
                <mxCell id="20" value="" style="shape=image;verticalLabelPosition=bottom;labelBackgroundColor=default;verticalAlign=top;aspect=fixed;imageAspect=0;image=data:image/png,iVBORw0KGgoAAAANSUhEUgAAAIQAAAAjCAIAAADaPzWmAAAACXBIWXMAAA7EAAAOxAGVKw4bAAAK6ElEQVRoge1baVQTWRZ+BDUkLGETQWIAcUBAQTuJLWizqLGxASPuKK7gnDPNJmFcaEd7+rTaPeMQ0Dm4IsgijrK6oQ6eRlmFoLhhs7pAUCAgQRASljA/SiuVqiSVQp1xjny/3rv3vvdu5b669937Klr6RpPAGD4PkP7XCoxBjnEaylnb2HC53G/c3c0mTjQxMaHq6oq7xJ2vO1uELdevX7t86VJvb+8nVfRLgJZ6N0UikZZyucHbgl1cZqkRGxgYvJZ39cjhw3V1dR9bwy8I6ozh6eW1f/9+K2trzae7lpcXHb27s6PzI6j25UGlMTZu3PTzgf0kEuGgIhQK165Z8+L581HrZGJqYmdnBwDo6e0Vtba3tbeNeqr/Lyg3RiSPx4uKGvWk3eLu1atWPnnyhOhALpe7NTjoq6+YKHrTixf19Q1Xr17OuJAxaq0AAJE8HtwuKS6pqChHcm1tbZdyuXA3JSWZ6Cvu7OKycOFCuHvq5ElCoVRJAF/m7/8hlgAA0AxpicnJPku8NX8Yaxub+Ph4ZxcXpVyGlRXDysrcfBJsDHcPj+joaDp9SnZ21o/79mmyhAGNhnoulDGmT5+OFMjPzydqDCaTiZwhIyODkDHQXojFYsfGxcHdqCheWGhoUVGR+lkkUmlKSvLGDYFpaakQxXLy5NOJiePGaXRao0+ZcuXKVVWWgCEQCN5Nbml5Nj19xsyZhkaGW4OCwiMiNFmFMLSIj9BSHDMyQmg4+sc6+Osv8C/YLe7OOH9hZGQkNyfH3cPjUEzMi2fPy8pKm5qaOjo66Jb0aX+wdZs3v6/vbeifvm95+RIA0Pe2LzBwAzScyWQFBgaeOXMGV4mEhASaIQ1XrKL83Ua2s7dD0plMFtzeuWsXi82G2sKmZh4vEndalSD2SwKAMcaITEZouIIxfHx8HBwc4G67qH3kvW0Lb9/+msUCeHjV2ors/nnHzuzs7Ddv3qgZ8q23t9OMGUhK4e3bKcnJpaWlPT09AAA9PT0Wm+3n61dcUgwJPHmsEI2qqu7BbTt7e1dXV6hda2yMq7AajBDc1wAAgDIGwRkU3FSkokvVN9Anqoyeri6ySzOkbd6yRf2Q4G3bkN2MCxnr1627ceMGZAkAQG9v762CgqgoXtfrLojS1t62ITCw+vFjcZf4dEJCXGwsUT0/T8jfDAcHB3t7eySPZkCj6Oj0SySaT6evj7afj6/vkcOHVclTqdS5c+fC3da2Vl7kdk0WulVQcKugAEtHe+0PwIdPNTwsAwDokMnT7O30dfWqq6vVOwm5MZZ89x2Kt3vXLkKWAACUl5fn5uQs8/eHKY6Ojgwrq6YXL5TKM5kKp9izqWmarKKnp5eICEX/OncuOytLh0zmLF5sa2sL0xkMxoXMTKgdvHWrxg/xDpCT+etPPzk6OUGU+vq6PdE/wAJJZ5J19d55gpv5N0+eOI6aISQs9Ou5cx0dHWFKSXHJ9vDw1rZWoAxyY8z/Zj6S0SHqyM3JIfoAAIDE04lIYwAAmEymKmNMnToV2S0rLdVkCSqVCgcGaJTpRNOq+w9QYhQKBRbT0dGRSKVIrqubG0reTtExQHB2cWaz50BtPaqCE3ab50alUqG2sFmIHbsFswPmzZ937sJ5nyVL+vr6sPJyY5hNNEMyKisFMoKHAQiPHj2USgfI5AkwxcLCQpWwvoEBstsuEsFtfmwcfQodJV9bW7t3zx4tzKlTW0tbvVbYIa6urkiLKhmC56awAthVsJg2bdr3ISH/OHQIy5Ibw9jEBMloa2/HnVcphoaGWl+9RFa01BhDVzHgS/v74facOWxsWQzamyOYU+fwyDCOVrIh9QJY4J6FsAJYxXp6erKysthsttN7XwcA2Lx5C44xyGQdJMMAE4o1h56ewlgDxe2PxPjxCmdrkrZ8g6vZmNgN2CHqWL7Mf9x47X17f5zhPBMi1tbWLlqwQK4GDT+VUViFyJshkw1jFeP6Lb137y7UPp2UtHjxYqitKqmS/xZicZeZmdxTmZur3M7qQaFQTEwVXrKuri5Vwl1dYmRXjdlwIRBUAADE3d0ayguFwubmZiTFxORdgfJjQdQh97qJpxNgY6iC3BidnZ1IYzBZLB0yGRX0NIG7uzuK0tmpssIjVjQGnU6Hy4t8Pp/BYAAA1gQEWE6eTFQNXFw4fz6Wz0dSfH19j5048SFzqnmZXr1UfoJCQp70PXrwEMmYMGH8suXLR6HQ+vflEBj3q6pUCbcpHvKQqXhWZmYsnx/L579sQR9UsK75owAVAwjFDKiNunFACrzuwq85ygeXlJageKGhoUbGRrhTIOHp5eW1wAtJGRgYFFRUqJIXVAqQ3ZUrV2qyCknrk1zdo8qaWiS8mIF32YO0DYVMwVVALn3z5s2BgUEkz8raOu/adWQZTg20tbUjtm9PTklB0a9fv6bG13WLux88uA93GVZWu3bvxl1LNjKaMzdRjMjQbwbKPLh1QGRuwLBi4K4o3wtvuruzszLXBgQAAMLDwiwsLLYEbaXT6bmXLubn56elptwquKU08zA2MV67NiAwMHAKQ8l6KXhV27NpZ5EX7KFhYbNmzT56NH5o6N3O0NcnENUHBgbgtoW5OZVKVZpeKYcyjy/pl9cgLC3leY/5JHPk2U8pJplNEr4/I/hr4PMVXsyEU6dWr1lDIpF8fHzCQkPLSssuXr6kpaXF4XA4HE5/f//qlavu31cIAJE8XiSPpypwVVSUl5eXK2XBOJeeHhISgkwp5n8zH1UO0BwdiLTRgEY7ey69qLBo9uzZERHhQ0M4uYi2sh+3HZFvGRkbpaalPXz4kMViu81TSOCHhpXkMbmXLpaVlgkEFTZTp/r5+cF0VeUQBa9XW1t7/NgxAMC33t5Hjx2vqrqHvERrbGhAWQIAkJaaqsoSg4ODu3fuUspCITgoiNCdmpqYUS5QsD2LxY7k8Ty9vFCpj1KgHgRySgWK5UhPL6/wiAiUJWCVSJgw4+rmGh4RgbQEAOCiijoT+qni+PzGxkYAwCLOIl9f36TExBX+y/kxMfyYmOjd0djxIpGopaVF6dRxsbH19fVKWSjU1NT4+vrcuXMHV/K3gt+A2phxKSe3uroaSx9FaQeKGRdzc+/erVQl8+Z9WgOpJEOEGVU11vr6+rjYOKUs9E1fv0Tyx+DgK3l5FArl17/9va6urqKiHHVXjMLbt2+xxMLbt/955IiaUSgIm5tXrVjB4XC8vZcsWLjQdKIpkisSibKzMk8cPyESiQAAPT09ZWVlMPdpYyPclkil69cF7Nmzl8PhGBoZQsSGhgapRDIolSJHNTU1oXRob29HCsDl7mVLuSGhoR6enk5OTlBa2i+R/PvGjZQzyfQpdCjKNjQ0AgCEzU3QDLJhWVTk9qBtwdxl/nD21tbWlnf1Kp8fo+piXPnXIZ5eXicTEig6OjKZrKS4+Pffn0gk0mfPnmVmKPk441ZhIbJwDQCorBRs2rjpjcbJMBZOTk4GNIPhIVltXU23eJTzzHR2Jk8gVyqenj8QLi6zxN1iQh8imZmZTZ5s2dba+qr1lXpJld9NTZ8+PSk5mU6Xnx+Oxsf/cvAgVrKouNjaxgbunktP/8ueH1Cn5DFoApWRsKamZoGHx7GjR3G9LZwrNTc1rQsI2Lljx5glRgd1OWS/RHLwwIF5rq5nkpJ6e3ufq3g36+rqnz19GhXF83B3Lyos/CRqfhnA+fB5DP9NjP0/4zPCmDE+I/wHdacuj+w50X4AAAAASUVORK5CYII=;" vertex="1" parent="1">
                    <mxGeometry x="500" y="148.39" width="172" height="45.61" as="geometry"/>
                </mxCell>
                <mxCell id="24" value="" style="endArrow=none;html=1;strokeWidth=4;" edge="1" parent="1">
                    <mxGeometry width="50" height="50" relative="1" as="geometry">
                        <mxPoint x="420" y="220" as="sourcePoint"/>
                        <mxPoint x="510" y="120" as="targetPoint"/>
                    </mxGeometry>
                </mxCell>
                <mxCell id="25" value="" style="shape=image;verticalLabelPosition=bottom;labelBackgroundColor=default;verticalAlign=top;aspect=fixed;imageAspect=0;image=data:image/png,iVBORw0KGgoAAAANSUhEUgAAAHgAAAB5CAIAAAB9WnIgAAAACXBIWXMAAA7EAAAOxAGVKw4bAAAG30lEQVR4nO2dz48URRTHv6+6p2dnZ3BZ1yBEIhg0Qkw8iPEALhIieCEeSEyMiRcPeOUf0JMXDx68od5MjAmBeDB6A9HERKKQEMGgwQSQRYELsLvs/Oiq56F7Zmf50dPTPbymmffJZg+9/bp6P/O6qrqqp4uarQ6UB48p+gTGBRUthIoWQkULoaKFUNFCqGghVLQQ/qgOxDzEzkR3Rg9T1MrgrAUz851nkS4wGyMTne9McgRnLZhyuxuKvKKZQYRzN8P3f10gZ5GYnAQwQMBXr65+atKzbD3yWp3zl66+51LlJQO0ce2X1cpGdiEZ3/75/cSpgwsdA3YJBZOhiuHOxNpg30EYE530zY8/8P843SRi55LKNKbBHL6+t/HufjgHk7GyzS0aIGA+5BO3fIQMJKZY9LEw3w6Xtzm3YPmEtYzELGNmIgDk3CIAsAOA+avm2invtvMoKdYxT1So7a+L04AZRJ2/zk7+fvK2dX5ianeYA880n9sSB2ZlRFUHA8bEipMvyXifvlBmMqBBnxH4nn9lEBmCoUFVCHU/mx7OGcAMqrZM3GHIrjgir+joLKcC2rU6hHVAqoyue9GOBMDzpirYZWhQRiPOaM80AIAMAEytd+u2h6EJnU0yRmADqq2J9yECELz4cjuYMEQuseowxrSYK89uGfCvDYJ0mFSGEVQdUUaka81iTF+VysxAYnN0d3Qvs5iZ08YSUXwdRKHODVHnEpExyNFXyZXRzjmTtRUuKcyczXX2jGbmyPLc3FxzaSnemLvReNggEAAG+54/88TMqlWPZTtORtHRB3v58uUjhw9dunRJuPNfFLVabXbHa3v2vJEhrzOKJqL5+VtffP5Zs7nEzJyjg1kiFhYWjv9wrFarzc7uGLbazCI6KuPkyZPtdstaOyaWicgYE4bhTz8e37Ztu+d5Q4Vnacois9evXxuTGiMiunDDMFxcXOy1SenJ3hiuWfNkclf/ESPKaGNMvV6vTkwMG55FdHTVbH1p67GjR5mXxke3tTYIgp07d/m+P2wdnbEfHTW7c3NzRw4funjx4jjUIcxcbzRmZ3fs3r0nQ68j+w1Lr7ArV660W61Hu+9BRJ7nzczM1BuNjEfIc2eY+TapvBRwZ4jujb9zjoYs/K7MzxjNPMTgQ3dEe/kow8UCyDHWMYJBpahNKGTOkGiIgolWFsxMQ8QWPWcYjTCfuRG+/fOt9FNZ3+16/Ol6PJXVbJ+78O++dD0XBmjT+m+rlU1sO+RV7Nlvar98shAadjapYEMV4rC+Lnjna5gKO0fG3PjwQHD6tyXjORvePxLk+Q1nw71vrdp/oPiprCXL51sVRCecYuC/Zfu3Ndn87Tj1VBY3uyUDSzdo4QLddpWBU1k+zS8txpMszADs3D+VyxcGTmWFzFXPtK//1wvMxmhmWAxgOi2yIdJltFnxr5l2i5wbeG0uRy+XTB5CslSxziaGGlhGrdo/w0JBtQWyfiW0ibG+32RHfqUXmI3RZHQ0dE/dLfeD+vZfeYyUmcJ3/QbAYB6caxyN4HYnZ+MtHIcPCOz2XHNk9HgN2xeIihZCRQuhooVQ0UKoaCFUtBAqWggVLYSKFkJFC6GihVDRQqhoIVS0ECpaCBUthIoWQkULMbKvKJeJ3hwrUfwzYOe+/bMylqKjOVZrfWaEnQGPG3Q6vmc6bvk5hWyMpejocYPHpsKpaSKT/KgCGS9kR/VGLzAb4yg6+sbg9EefcrtdT+OOGdUqgMyPKWE8RUfQZJ0m62LFja9oIP42TnJKxzsU/pBjuUnxkOioHv/WfrQQKloIFS2EihZCRQuhooVQ0UKoaCFUtBDlFZ3hlm3g/fYDpLyiS0Z5xzp6L78EnDVI+oq2Y+cRtZ3L/0LGzJRWtPEBmBfebG94JWBQ970498QjcuCqF8AEgqe4gtKKjgYva9Ncm+77gufDS3lFd1u21G9yZI7nVgqhvKK7UFp3xb5ZRHsdQqhoIVS0ECpaCBUthIoWQkULoaKFUNFCqGghVLQQKloIFS2EihaiWNF01+/R7v8QUex4dPxORiIAFqneTWr63uRYJtfFiu7mJvtm0Pg9RQv89EeViiJFR3Ings2bN5xJPzsd+OshvpBpfgrNaAYIREFQeabI0xChUNF9SxpnCysRD8nkbCndDYX2o4VQ0UKoaCFUtBAqWggVLYSKFmI067AQ4FG8YFaa5UFKOVqRj9Gsw+IA61fj6yPFykLRau0lG3/Lx2gyetKj5yfa0VpZaURXPcY4WUbO9Qz76S3bk+Svu65Q2YbeRsDIxjoIKVJ0DOvmLtrrEEJFC6GihVDRQqhoIVS0ECpaCBUthIoWQkULoaKFUNFC/A93VpFOveQ3vAAAAABJRU5ErkJggg==;" vertex="1" parent="1">
                    <mxGeometry x="30" y="330" width="59.51" height="60" as="geometry"/>
                </mxCell>
            </root>
        </mxGraphModel>
    </diagram>
</mxfile>